<svg xmlns="http://www.w3.org/2000/svg" viewBox="0 0 327.61 113.54">
  <g class="logo-first-group">
    <path d="M61.81,60.85c0.65,2.62,1,5,.11,6.86-4.58,9.37-12.53,23-19.83,23-2.07,0-7.52-5.67-7.52-10.13,0-.44.11-2,0.33-4.14-5.23,7.85-10.46,14.27-14.17,14.27-2.61,0-9.37-6.65-9.37-10.79,0-11.66,12.75-38.25,22.77-38.25,2,0,5.45,2.51,7.63,4.79,1.42-2.94,3.05-4.79,4.79-4.79s6,3.7,8.94,6.86C54,56,50.7,62.27,47.21,65.87c-2.94,8.39-4.9,16.56-2.83,16.56C47.21,82.43,57.56,68.37,61.81,60.85Zm-21.68-10a3,3,0,0,0-1.85-1.09C32,49.74,22.7,71.86,22.7,82.43A87.39,87.39,0,0,0,36.64,65.21,106.93,106.93,0,0,1,40.13,50.83Z" transform="translate(-11.36 -9.69)" style="fill: #ecf0f1" />
    <path d="M104.75,60.85c0.65,2.62,1,5,.11,6.86-4.58,9.37-12.53,23-19.83,23-2.07,0-8-5.67-8-10.13,0-1.63,2.62-15.15,6.1-25.71-4,3.49-9.81,10.46-14.27,17.32-2.18,10.57-5,18.52-7.3,18.52s-7.52-7.08-7.52-10c0-3.6,1.85-7.19,5-10.68,2.83-7.63,4.69-19.94,5.88-28.33C72.6,44,75.54,46.36,75.54,48.22c0,1.09-1.42,5.88-3.38,11.44,6.86-9.59,14.17-18,18.85-18,1.63,0,7.08,5.88,7.08,7.74,0,1.53-14.93,33-10.79,33C90.14,82.43,100.5,68.37,104.75,60.85Z" transform="translate(-11.36 -9.69)" style="fill: #ecf0f1" />
    <path d="M131.66,67.61c-5.56,16.24-9,38.14-9,52.19-4,0-11.33-3.92-11.33-6.76,0-8.17,4.69-23.32,9.7-37-5,8.06-10,14.71-13.73,14.71-2.62,0-7.85-6.65-7.85-10.79,0-2.94,8.72-25.39,8.72-38.25C115.86,44,120,46.47,120,48.22c0,2.29-10.68,29.31-11,34.21a87.2,87.2,0,0,0,15-19.94c1.85-10.13,4.79-20.81,9-20.81,1.74,0,6,3.7,8.94,6.86C140.27,57.37,135.91,64.67,131.66,67.61Z" transform="translate(-11.36 -9.69)" style="fill: #ecf0f1" />
  </g>
  <g class="logo-second-group">
    <path d="M144.08,96c-3.16-3.38-5.56-6.32-5.56-8.39,0-2.51,2-6.21,6.21-10.9-2.29-2.72-4-6-4-8.06,0-9.15,9.7-26.26,16.56-26.26,1.2,0,4,1.53,6,3.27,1-1.31,2.07-2.18,2.83-2.18,1.63,0,4.25,5.12,5,8.94a52.91,52.91,0,0,0,17.11-4c-0.11,1.74-.33,2.83-0.87,3.38a38.83,38.83,0,0,1-16.56,8.94c-2.62,11.88-12.1,20.92-18.63,20.92a8.22,8.22,0,0,1-4.79-2.18,4.15,4.15,0,0,0-.65,2.07c0,1.85,2.94,4.79,6.32,8.06,3.05-2.07,6.1-4.14,8.83-5.67s3.38-1.09,5.88.65l-10.9,8.39c4.14,3.81,8,7.41,8,9.48,0,9.26-15,20.81-26.48,20.81-2.07,0-8.83-7.08-8.83-10.46C129.48,108.74,136.13,102.2,144.08,96Zm4.25,4.58a57.23,57.23,0,0,0-10,12.31,50,50,0,0,0,8.5.76c5.34,0,8.83-1.2,8.83-2.18C155.63,108.52,152.14,104.6,148.33,100.56ZM164.89,60.9c-2.4-.87-5.12-3.16-5.12-5.77a15.08,15.08,0,0,1,1.63-6.21A30.92,30.92,0,0,0,152,69.84a12.71,12.71,0,0,0,1.09,5.45C157.48,73.54,162.61,67.22,164.89,60.9Z" transform="translate(-11.36 -9.69)" style="fill: #C2E0F4" />
    <path d="M215.67,61.55c0.65,2.62,1,5,.11,6.86-4.58,9.37-12.53,23-19.83,23-2.94,0-10.13-6.76-10.13-9,0-7.08,12.2-29.42,12.2-30.84,0-1.09-2.72-2.4-5.77-4C186.58,63.84,176,91.41,174.37,91.41c-0.87,0-6.32-6.43-5-8.61C175.14,72.56,183,54.36,186.9,44.45c-1.85-1.31-3.16-2.62-3.16-4.14,0-3.16,4.58-10.35,7.63-10.35,2.4,0,5.88,1.53,8.17,5.12-1.42,1.74-4.14,5.34-4.14,6.65,0,2,13,4.69,13,8.5,0,2-13.73,32.91-10.13,32.91C201.07,83.13,211.42,69.07,215.67,61.55Z" transform="translate(-11.36 -9.69)" style="fill: #C2E0F4" />
    <path d="M260.24,61.55c0.65,2.62,1,5,.11,6.86-4.58,9.37-12.53,23-19.83,23-2.07,0-7.52-5.67-7.52-10.13,0-.44.11-2,0.33-4.14-5.23,7.85-10.46,14.27-14.17,14.27-2.61,0-9.37-6.65-9.37-10.79,0-11.66,12.75-38.25,22.77-38.25,2,0,5.45,2.51,7.63,4.79,1.42-2.94,3.05-4.79,4.79-4.79s6,3.7,8.94,6.86c-1.53,7.41-4.79,13.73-8.28,17.32-2.94,8.39-4.9,16.56-2.83,16.56C245.63,83.13,256,69.07,260.24,61.55Zm-21.68-10a3,3,0,0,0-1.85-1.09c-6.32,0-15.58,22.12-15.58,32.69a87.39,87.39,0,0,0,13.95-17.22A106.85,106.85,0,0,1,238.55,51.53Z" transform="translate(-11.36 -9.69)" style="fill: #C2E0F4" />
    <path d="M304.8,61.55c0.65,2.62,1,5,.11,6.86-4.58,9.37-12.53,23-19.83,23-2.07,0-7.52-5.67-7.52-10.13,0-.54.22-2.18,0.54-4.47-5.23,8-10.68,14.6-14.38,14.6-2.61,0-9.37-6.65-9.37-10.79,0-11.66,12.75-38.25,22.77-38.25,1.85,0,5,2.29,7.19,4.47,4.47-18.41,10.46-37.16,15.25-37.16,1.74,0,8.94,5.67,8.94,6.76,0,4-3.92,16.45-12.1,29.09-6.1,18.09-11.33,37.59-9,37.59C290.2,83.13,300.55,69.07,304.8,61.55Zm-21.57-9.92a3,3,0,0,0-2-1.2c-6.32,0-15.58,22.12-15.58,32.69A85.28,85.28,0,0,0,280.39,64.5C281.27,60.47,282.14,56.11,283.23,51.64Z" transform="translate(-11.36 -9.69)" style="fill: #C2E0F4" />
    <path d="M300,77.25c0-11.44,11.11-34.87,20.27-34.87,4.69,0,13.51,8,13.51,9.92,0,10.79-11.11,16.67-22.23,18.74A32.23,32.23,0,0,0,309.49,81c0,2.62.87,4.25,2.94,4.25C320.6,85.2,333.57,72,338,61.55c0.87,2.72,1.31,5.12.54,6.86-5.34,12.31-15.25,23-26.37,23C308.07,91.41,300,83.13,300,77.25Zm13.73-11.66c5.78-2.07,10.68-6.21,10.68-14.38C321.47,51.2,317,58.07,313.74,65.59Z" transform="translate(-11.36 -9.69)" style="fill: #C2E0F4" />
  </g>
</svg>
